<svg xmlns="http://www.w3.org/2000/svg" version="1.1" xmlns:xlink="http://www.w3.org/1999/xlink" xmlns:svgjs="http://svgjs.com/svgjs" width="1900" height="1400" preserveAspectRatio="none" viewBox="0 0 1900 1400"><g mask="url(&quot;#SvgjsMask1519&quot;)" fill="none"><rect width="1900" height="1400" x="0" y="0" fill="url(#SvgjsLinearGradient1520)"></rect><path d="M503 488L1736 487" stroke-width="8" stroke="url(#SvgjsLinearGradient1521)" stroke-linecap="round" class="Right"></path><path d="M1803 1087L976 1086" stroke-width="8" stroke="url(#SvgjsLinearGradient1522)" stroke-linecap="round" class="Left"></path><path d="M294 867L-961 866" stroke-width="6" stroke="url(#SvgjsLinearGradient1522)" stroke-linecap="round" class="Left"></path><path d="M1139 1384L1616 1383" stroke-width="6" stroke="url(#SvgjsLinearGradient1522)" stroke-linecap="round" class="Left"></path><path d="M945 683L85 682" stroke-width="6" stroke="url(#SvgjsLinearGradient1522)" stroke-linecap="round" class="Left"></path><path d="M444 883L1531 882" stroke-width="10" stroke="url(#SvgjsLinearGradient1522)" stroke-linecap="round" class="Left"></path><path d="M1027 720L1705 719" stroke-width="8" stroke="url(#SvgjsLinearGradient1521)" stroke-linecap="round" class="Right"></path><path d="M1605 716L900 715" stroke-width="6" stroke="url(#SvgjsLinearGradient1521)" stroke-linecap="round" class="Right"></path><path d="M1398 739L258 738" stroke-width="8" stroke="url(#SvgjsLinearGradient1522)" stroke-linecap="round" class="Left"></path><path d="M1233 639L221 638" stroke-width="8" stroke="url(#SvgjsLinearGradient1521)" stroke-linecap="round" class="Right"></path><path d="M136 603L744 602" stroke-width="8" stroke="url(#SvgjsLinearGradient1522)" stroke-linecap="round" class="Left"></path><path d="M795 115L1303 114" stroke-width="6" stroke="url(#SvgjsLinearGradient1522)" stroke-linecap="round" class="Left"></path><path d="M1740 47L1154 46" stroke-width="8" stroke="url(#SvgjsLinearGradient1522)" stroke-linecap="round" class="Left"></path><path d="M1868 555L2650 554" stroke-width="6" stroke="url(#SvgjsLinearGradient1521)" stroke-linecap="round" class="Right"></path><path d="M346 272L-1077 271" stroke-width="8" stroke="url(#SvgjsLinearGradient1521)" stroke-linecap="round" class="Right"></path><path d="M1354 139L2457 138" stroke-width="6" stroke="url(#SvgjsLinearGradient1521)" stroke-linecap="round" class="Right"></path><path d="M1509 1090L441 1089" stroke-width="8" stroke="url(#SvgjsLinearGradient1521)" stroke-linecap="round" class="Right"></path><path d="M931 263L-182 262" stroke-width="8" stroke="url(#SvgjsLinearGradient1521)" stroke-linecap="round" class="Right"></path><path d="M1181 851L-20 850" stroke-width="6" stroke="url(#SvgjsLinearGradient1521)" stroke-linecap="round" class="Right"></path><path d="M1757 131L2411 130" stroke-width="6" stroke="url(#SvgjsLinearGradient1522)" stroke-linecap="round" class="Left"></path><path d="M1172 13L349 12" stroke-width="6" stroke="url(#SvgjsLinearGradient1521)" stroke-linecap="round" class="Right"></path><path d="M805 64L2081 63" stroke-width="8" stroke="url(#SvgjsLinearGradient1521)" stroke-linecap="round" class="Right"></path><path d="M239 986L1653 985" stroke-width="6" stroke="url(#SvgjsLinearGradient1521)" stroke-linecap="round" class="Right"></path><path d="M901 1136L275 1135" stroke-width="10" stroke="url(#SvgjsLinearGradient1522)" stroke-linecap="round" class="Left"></path><path d="M1573 1164L2983 1163" stroke-width="10" stroke="url(#SvgjsLinearGradient1521)" stroke-linecap="round" class="Right"></path><path d="M64 324L678 323" stroke-width="6" stroke="url(#SvgjsLinearGradient1522)" stroke-linecap="round" class="Left"></path><path d="M241 606L1372 605" stroke-width="8" stroke="url(#SvgjsLinearGradient1522)" stroke-linecap="round" class="Left"></path><path d="M1286 1338L538 1337" stroke-width="6" stroke="url(#SvgjsLinearGradient1522)" stroke-linecap="round" class="Left"></path><path d="M1130 608L1783 607" stroke-width="8" stroke="url(#SvgjsLinearGradient1521)" stroke-linecap="round" class="Right"></path><path d="M1471 683L2359 682" stroke-width="6" stroke="url(#SvgjsLinearGradient1521)" stroke-linecap="round" class="Right"></path><path d="M679 1013L188 1012" stroke-width="6" stroke="url(#SvgjsLinearGradient1522)" stroke-linecap="round" class="Left"></path><path d="M340 1259L-369 1258" stroke-width="10" stroke="url(#SvgjsLinearGradient1521)" stroke-linecap="round" class="Right"></path><path d="M43 1205L776 1204" stroke-width="10" stroke="url(#SvgjsLinearGradient1521)" stroke-linecap="round" class="Right"></path><path d="M911 670L1891 669" stroke-width="10" stroke="url(#SvgjsLinearGradient1522)" stroke-linecap="round" class="Left"></path><path d="M1443 775L2152 774" stroke-width="8" stroke="url(#SvgjsLinearGradient1522)" stroke-linecap="round" class="Left"></path></g><defs><mask id="SvgjsMask1519"><rect width="1900" height="1400" fill="#ffffff"></rect></mask><linearGradient x1="6.58%" y1="-8.93%" x2="93.42%" y2="108.93%" gradientUnits="userSpaceOnUse" id="SvgjsLinearGradient1520"><stop stop-color="#0e2a47" offset="0"></stop><stop stop-color="rgba(4, 13, 24, 1)" offset="0.76"></stop><stop stop-color="rgba(4, 13, 24, 1)" offset="1"></stop></linearGradient><linearGradient x1="0%" y1="0%" x2="100%" y2="0%" id="SvgjsLinearGradient1521"><stop stop-color="rgba(29, 30, 111, 0)" offset="0"></stop><stop stop-color="rgba(29, 30, 111, 1)" offset="1"></stop></linearGradient><linearGradient x1="100%" y1="0%" x2="0%" y2="0%" id="SvgjsLinearGradient1522"><stop stop-color="rgba(29, 30, 111, 0)" offset="0"></stop><stop stop-color="rgba(29, 30, 111, 1)" offset="1"></stop></linearGradient></defs></svg>